<?xml version="1.0" encoding="utf-8"?>
<!-- Generator: Adobe Illustrator 18.1.1, SVG Export Plug-In . SVG Version: 6.00 Build 0)  -->
<svg version="1.1" id="Layer_1" xmlns="http://www.w3.org/2000/svg" xmlns:xlink="http://www.w3.org/1999/xlink" x="0px" y="0px"
	 viewBox="0 0 120.7 120.7" enable-background="new 0 0 120.7 120.7" xml:space="preserve">
<g>
	<path fill="#FFFFFF" d="M40.5,56.3c-0.7-0.6-1.9-0.9-3.5-0.9h-3.7v10.5h2.3V63H37c1.5,0,2.7-0.3,3.5-0.9c0.8-0.6,1.1-1.5,1.1-2.8
		C41.6,57.9,41.2,57,40.5,56.3z M38.8,60.5c-0.3,0.3-0.8,0.5-1.6,0.5h-1.6v-3.5H37c0.8,0,1.3,0.1,1.7,0.4c0.4,0.3,0.5,0.7,0.5,1.3
		C39.2,59.7,39.1,60.2,38.8,60.5z"/>
	<path fill="#FFFFFF" d="M64.1,42.3c0.5-0.6,0.8-1.2,0.8-1.9c0-0.7-0.2-1.2-0.6-1.7c-0.4-0.4-0.9-0.7-1.6-0.9
		c0.2-0.1,0.3-0.1,0.4-0.2c0.1,0,0.2-0.1,0.4-0.3c0.5-0.4,0.8-1,0.8-1.8c0-0.7-0.2-1.3-0.7-1.8c-0.3-0.3-0.6-0.5-1.2-0.7
		c-0.5-0.2-1.1-0.3-1.8-0.3h-4.1v10.5h4.6C62.5,43.3,63.6,43,64.1,42.3z M58.9,34.8H60c0.7,0,1.2,0.1,1.5,0.2
		c0.3,0.1,0.4,0.5,0.4,0.9c0,0.5-0.2,0.8-0.5,0.9c-0.3,0.1-0.8,0.2-1.4,0.2h-1.1V34.8z M58.9,41.3v-2.4h1.4c0.8,0,1.3,0.1,1.7,0.2
		c0.4,0.2,0.5,0.5,0.5,1c0,0.5-0.2,0.8-0.5,1c-0.3,0.2-0.8,0.2-1.5,0.2H58.9z"/>
	<polygon fill="#FFFFFF" points="79.8,57.3 82.7,57.3 82.7,65.7 85.1,65.7 85.1,57.3 88,57.3 88,55.2 79.8,55.2 	"/>
	<path fill="#FFFFFF" d="M55.8,86.3h-1c1.1-0.8,2.1-1.7,2.1-2.4c0-0.7-0.5-0.9-1-0.9c-0.8,0-1.3,0.6-1.3,0.6l0.1,0.2
		c0.2-0.2,0.6-0.4,0.9-0.4c0.3,0,0.6,0.2,0.6,0.6c0,0.5-0.3,1-0.8,1.4c-0.5,0.4-1.5,1.2-1.5,1.2l0,0.2h2.6l0.5-1.2h-0.2
		C56.5,85.9,56.3,86.3,55.8,86.3z"/>
	<path fill="#FFFFFF" d="M57.9,85.3c0,0.9,0.5,1.6,1.5,1.6c1.2,0,2-1.3,2-2.4c0-0.8-0.5-1.5-1.5-1.5C58.6,82.9,57.8,84.2,57.9,85.3z
		 M60.7,84.4c0,1-0.6,2.1-1.4,2.1c-0.6,0-0.8-0.5-0.8-1.1c0-0.9,0.5-2.1,1.4-2.1C60.4,83.3,60.7,83.8,60.7,84.4z"/>
	<path fill="#FFFFFF" d="M63.8,86.6L63,86.5c0,0,0.1-0.2,0.1-0.4l0.6-2.7l0.7-0.1l0-0.3h-2v0.3c0.5,0,0.7,0.1,0.6,0.5l-0.5,2.3
		c-0.1,0.4-0.3,0.5-0.7,0.5v0.3l2,0L63.8,86.6z"/>
	<path fill="#FFFFFF" d="M66.3,86.4c0,0.9-1.1,1.6-2.2,1.6v0.3c0,0,0.1,0,0.2,0c1.3,0,2.6-0.8,2.6-2.1c0-1.2-1.7-1.5-1.7-1.5
		l0.3-1.2h1.7l0.2-0.6c0,0-0.2,0-0.5,0h-1.6l-0.6,2.3C64.8,85.3,66.3,85.5,66.3,86.4z"/>
	<polygon fill="#FFFFFF" points="2.8,111.8 2.6,112.8 7.2,113.4 7.9,118.1 8.9,117.9 8.1,112.6 	"/>
	<polygon fill="#FFFFFF" points="0.2,114.3 0,115.3 4.6,116 5.4,120.7 6.4,120.5 5.5,115.1 	"/>
	<path fill="#FFFFFF" d="M113.2,6.8L99.4,20.6l-0.1-0.1l0,0c-21.6-21.4-56.5-21.3-78.1,0L7.5,6.8l5.8-1L0,0l5.8,13.3l1-5.8
		l13.8,13.8l-0.1,0.1l0,0c-0.5,0.5-0.9,1-1.4,1.5c-0.3,0.3-0.5,0.6-0.8,0.9c-0.3,0.3-0.5,0.6-0.8,0.9c-0.3,0.4-0.7,0.8-1,1.2
		c-0.1,0.2-0.3,0.4-0.4,0.6c-0.4,0.5-0.7,1-1.1,1.5c-1,1.5-2,2.9-2.9,4.5c-0.3,0.5-0.5,1-0.8,1.5c-1.2,2.2-2.2,4.5-3,6.8
		c-0.3,0.8-0.6,1.6-0.8,2.4c0,0,0,0,0,0c-0.2,0.7-0.4,1.3-0.6,2c-0.2,0.9-0.5,1.8-0.7,2.7C6.2,48.2,6.1,48.6,6,49
		c-0.2,1.2-0.4,2.4-0.6,3.6c-0.1,1.1-0.3,2.2-0.3,3.3v0c-0.1,1.6-0.2,3.2-0.1,4.7c0,0.5,0,0.9,0,1.4c0,0.5,0,1,0.1,1.5
		c0,0.4,0.1,0.9,0.1,1.3c0,0.5,0.1,1,0.1,1.4c0,0.4,0.1,0.8,0.2,1.3c0.2,1.3,0.4,2.6,0.7,3.9c0,0.2,0.1,0.3,0.1,0.5
		c0.1,0.7,0.3,1.3,0.5,2c0.1,0.3,0.1,0.5,0.2,0.8c0.2,0.6,0.3,1.2,0.5,1.8c0.1,0.3,0.4,0.5,0.5,0.8c0.5,1.5,0.9,2.9,1.9,4.4v0
		c0,1.1,0.7,2.1,1.2,3.1c0.2,0.3,0.2,0.6,0.3,0.9c1,1.9,2.1,3.8,3.3,5.6c0,0,0,0,0,0c1,1.5,2.1,2.9,3.3,4.3c0.2,0.3,0.4,0.5,0.6,0.8
		c0.7,0.8,1.4,1.6,2.2,2.4c0.1,0.1,0.1,0.1,0.2,0.2l0,0l0,0l-10.8,10.8l-4.8-0.7l-0.1,1l4.6,0.7l0.7,4.7l1-0.2l-0.8-4.8l10.8-10.8
		c10.7,10.4,24.7,15.7,38.7,15.7c14,0,27.9-5.2,38.7-15.6l0,0l0,0l10.8,10.8l-0.7,4.8l1,0.1l0.7-4.6l4.7-0.7l-0.2-1l-4.8,0.8
		L99.7,99.1c0.6-0.6,1.1-1.1,1.6-1.7c0.4-0.4,0.7-0.8,1.1-1.3c0.2-0.2,0.4-0.4,0.5-0.6c0.5-0.6,0.9-1.1,1.4-1.7
		c0-0.1,0.1-0.1,0.1-0.2c0.5-0.6,0.9-1.3,1.4-1.9c1.6-2.3,3.1-4.8,4.3-7.3c0,0,0,0,0,0c1.8-3.8,3.2-7.7,4.2-11.8c0,0,0,0,0-0.1
		c0.3-1.2,0.5-2.4,0.7-3.7c0.2-1.1,0.3-2.3,0.5-3.5c0.1-1.1,0.2-2.2,0.2-3.3c0-0.5,0-0.9,0-1.4c0-0.6,0-1.2,0-1.8c0-0.4,0-0.8,0-1.2
		c0-0.7-0.1-1.4-0.1-2.1c0-0.2,0-0.5,0-0.7c-0.1-1.4-0.3-2.7-0.5-4.1c-0.1-0.4-0.1-0.8-0.2-1.2c-0.1-0.4-0.2-0.9-0.3-1.3
		c0-0.2-0.1-0.4-0.1-0.6c-0.7-2.9-1.5-5.8-2.7-8.6c-0.1-0.3-0.3-0.6-0.4-1c-0.2-0.4-0.3-1.1-0.5-1.1h-0.1c-0.3-1-1-1.4-1-2.1v0v0
		c0-0.7-0.6-1.3-1-2c-0.2-0.3-0.3-0.6-0.5-0.9c-0.2-0.3-0.4-0.7-0.6-1c-0.2-0.3-0.4-0.6-0.5-0.9c-0.3-0.5-0.6-1-1-1.5
		c-0.1-0.1-0.1-0.2-0.2-0.3c-0.6-0.9-1.3-1.8-1.9-2.6c0,0,0,0,0,0c-0.2-0.3-0.4-0.5-0.6-0.8c-1.1-1.3-2.2-2.6-3.4-3.8l13.8-13.8
		l1,5.8L120.7,0l-13.3,5.8L113.2,6.8z M6,6L5.4,9.8L1.9,1.9l7.9,3.5L6,6z M99.4,22c0.2,0.2,0.4,0.4,0.6,0.6l-10,10
		c-0.2-0.2-0.4-0.4-0.6-0.6L99.4,22z M88,32L60.3,59.6L32.7,31.9C48,16.9,72.6,16.9,88,32z M21.2,22l0.6,0.6l-6.4,6.4
		C17.2,26.6,19.1,24.3,21.2,22z M13,33l9.6-9.6l0.8,0.8L11.3,36.3C11.8,35.2,12.4,34,13,33z M10.1,38.8l13.9-13.9l0.8,0.8L9.1,41.4
		C9.4,40.6,9.8,39.7,10.1,38.8z M8.4,43.6l17.2-17.2l0.8,0.8L7.8,45.8C8,45.1,8.2,44.3,8.4,43.6z M7.3,47.7l19.8-19.8l0.8,0.8
		l-21,21C7,49,7.1,48.4,7.3,47.7z M6.6,51.4l22-22l0.8,0.8L6.3,53.3C6.4,52.6,6.5,52,6.6,51.4z M6.1,54.9l24-24l0.8,0.8L6,56.6
		C6,56,6.1,55.4,6.1,54.9z M5.9,58.1l21.4-21.4c-1,1.3-1.8,2.7-2.6,4.2L5.9,59.7C5.9,59.1,5.9,58.6,5.9,58.1z M5.9,61.1l17.4-17.4
		c-0.4,0.9-0.7,1.8-1.1,2.6L6,62.6C5.9,62.1,5.9,61.6,5.9,61.1z M6.2,65.4c0-0.5-0.1-1-0.1-1.5l15.6-15.6c-0.2,0.7-0.4,1.4-0.6,2.2
		L6.2,65.4z M6.5,68.1c-0.1-0.5-0.1-0.9-0.2-1.4l14.3-14.3c-0.1,0.6-0.2,1.3-0.3,1.9L6.5,68.1z M6.7,69.3l13.4-13.4
		C20,56.5,20,57,20,57.6l-13,13C6.8,70.2,6.8,69.7,6.7,69.3z M7.2,71.8l12.7-12.7c0,0.5,0,1.1,0,1.6L7.5,73.1
		C7.4,72.7,7.3,72.2,7.2,71.8z M7.8,74.2l12.2-12.2c0,0.5,0.1,1,0.1,1.5L8.1,75.5C8,75.1,7.9,74.6,7.8,74.2z M8.4,76.5l11.7-11.7
		c0.1,0.5,0.1,0.9,0.2,1.4L8.8,77.7C8.7,77.3,8.6,76.9,8.4,76.5z M9.6,79.9c-0.1-0.4-0.3-0.8-0.4-1.2l11.3-11.3
		c0.1,0.4,0.2,0.9,0.3,1.3L9.6,79.9z M10,80.9l11-11c0.1,0.4,0.2,0.8,0.3,1.3L10.5,82.1C10.4,81.7,10.2,81.3,10,80.9z M11,83
		l10.8-10.8c0.1,0.4,0.2,0.8,0.4,1.2L11.5,84.1C11.3,83.7,11.1,83.4,11,83z M11.9,85l10.6-10.6c0.1,0.4,0.3,0.8,0.4,1.1L12.5,86.1
		C12.3,85.7,12.1,85.4,11.9,85z M13,87l10.4-10.4c0.2,0.4,0.3,0.7,0.5,1.1L13.6,88C13.4,87.7,13.2,87.3,13,87z M14.1,88.9l10.2-10.2
		c0.2,0.3,0.4,0.7,0.6,1L14.7,89.8C14.5,89.5,14.3,89.2,14.1,88.9z M15.3,90.7l10.1-10.1c0.2,0.3,0.4,0.7,0.6,1l-10,10
		C15.7,91.3,15.5,91,15.3,90.7z M16.5,92.4l10-10c0.2,0.3,0.4,0.6,0.6,0.9l-10,10C17,93,16.8,92.7,16.5,92.4z M17.9,94.1l9.9-9.9
		c0.2,0.3,0.5,0.6,0.7,0.9L18.6,95C18.3,94.7,18.1,94.4,17.9,94.1z M19.2,95.8l9.9-9.9c0.2,0.3,0.5,0.6,0.7,0.9L20,96.6
		C19.7,96.3,19.5,96,19.2,95.8z M21.4,98.2c-0.3-0.3-0.5-0.5-0.8-0.8l9.8-9.8c0.3,0.3,0.5,0.6,0.8,0.8L21.4,98.2z M32,87.6
		c-0.3-0.3-0.5-0.5-0.8-0.8c-0.2-0.2-0.4-0.5-0.7-0.8c-0.2-0.3-0.5-0.6-0.7-0.9c-0.2-0.3-0.4-0.5-0.6-0.8c-0.7-0.9-1.3-1.8-1.9-2.7
		c-0.2-0.3-0.4-0.6-0.5-0.9c-0.6-1-1.1-1.9-1.6-2.9c-0.2-0.3-0.3-0.6-0.5-0.9c-0.2-0.4-0.3-0.7-0.5-1.1c-0.1-0.3-0.3-0.7-0.4-1
		c-0.2-0.4-0.3-0.8-0.4-1.2c-0.1-0.3-0.2-0.7-0.4-1c-0.1-0.4-0.3-0.8-0.4-1.2c-0.1-0.4-0.2-0.7-0.3-1.1c-0.1-0.4-0.2-0.8-0.3-1.3
		c0-0.2-0.1-0.3-0.1-0.5c-0.1-0.7-0.3-1.3-0.4-2c-0.1-0.4-0.1-0.8-0.2-1.2c-0.1-0.5-0.1-0.9-0.2-1.4c0-0.4-0.1-0.9-0.1-1.3
		c0-0.5-0.1-1-0.1-1.5c0-0.5,0-0.9,0-1.4c0-0.5,0-1.1,0-1.6c0-0.5,0.1-1,0.1-1.5c0.1-0.6,0.1-1.2,0.2-1.8c0.1-0.6,0.2-1.1,0.3-1.7
		c0.1-0.7,0.3-1.3,0.4-2c0.1-0.6,0.3-1.3,0.5-1.9c0.2-0.8,0.5-1.6,0.8-2.3c0.3-0.8,0.6-1.6,0.9-2.3c0.4-1,0.9-2.1,1.5-3.1
		c0.3-0.6,0.7-1.2,1-1.8c0,0,0,0,0,0c0.4-0.6,0.7-1.2,1.1-1.8c1.2-1.8,2.6-3.6,4.2-5.2l27.7,27.7L32.2,87.8
		C32.1,87.7,32,87.7,32,87.6z M32.9,88.5l27.5-27.4l27.4,27.5C72.5,103.3,48.1,103.2,32.9,88.5z M61.1,60.4l27.7-27.7
		c0.2,0.2,0.4,0.4,0.6,0.6c0.2,0.2,0.5,0.5,0.7,0.7c0.2,0.3,0.5,0.6,0.7,0.9c0.2,0.3,0.4,0.5,0.6,0.8c0.2,0.3,0.5,0.6,0.7,0.9
		c0.2,0.3,0.4,0.5,0.6,0.8c0.2,0.3,0.4,0.6,0.6,0.9c0.2,0.3,0.4,0.6,0.5,0.9c0.7,1.2,1.4,2.3,2,3.5c0.1,0.1,0.1,0.2,0.2,0.3
		c0.2,0.4,0.3,0.7,0.5,1.1c0.1,0.3,0.3,0.7,0.4,1c0.2,0.4,0.3,0.8,0.4,1.1c0.1,0.3,0.3,0.7,0.4,1c0.1,0.4,0.3,0.8,0.4,1.2
		c0.1,0.4,0.2,0.7,0.3,1.1c0.1,0.4,0.2,0.8,0.3,1.3c0.1,0.3,0.1,0.5,0.2,0.8c0.1,0.6,0.2,1.1,0.3,1.7c0.1,0.4,0.1,0.8,0.2,1.2
		c0.1,0.5,0.1,0.9,0.2,1.4c0,0.4,0.1,0.9,0.1,1.3c0,0.5,0.1,1,0.1,1.5c0,0.5,0,0.9,0,1.4c0,0.5,0,1.1,0,1.6c0,0.5-0.1,1-0.1,1.5
		c0,0.6-0.1,1.2-0.2,1.8c-0.1,0.6-0.2,1.1-0.2,1.7c-0.1,0.7-0.2,1.3-0.4,2c-0.1,0.6-0.3,1.3-0.5,1.9c-0.2,0.8-0.4,1.5-0.7,2.3
		c-0.3,0.8-0.5,1.5-0.8,2.3c-0.4,1-0.9,2-1.4,2.9c-0.6,1.1-1.2,2.2-1.9,3.3c-1.4,2.3-3.1,4.4-5.1,6.4L61.1,60.4z M99,98.4l-0.7-0.7
		l7.2-7.2C103.6,93.3,101.5,95.9,99,98.4z M107.8,86.8L97.6,96.9l-0.8-0.8l12.7-12.7C109,84.6,108.4,85.7,107.8,86.8z M110.6,80.9
		L96.1,95.4l-0.8-0.8l16.3-16.3C111.3,79.2,111,80.1,110.6,80.9z M112.3,76.3L94.6,93.9l-0.8-0.8L113,74
		C112.8,74.8,112.6,75.5,112.3,76.3z M113.4,72.2L93.1,92.4l-0.8-0.8l21.5-21.5C113.7,70.8,113.6,71.5,113.4,72.2z M114.1,68.4
		L91.6,90.9l-0.8-0.8l23.5-23.5C114.3,67.2,114.2,67.8,114.1,68.4z M114.6,65L90.1,89.4l-0.8-0.8l25.3-25.3
		C114.6,63.9,114.6,64.4,114.6,65z M114.7,61.8L94.1,82.5c0.8-1.2,1.6-2.5,2.2-3.8l18.5-18.4C114.8,60.7,114.8,61.3,114.7,61.8z
		 M114.8,58.8L97.6,76c0.4-0.9,0.7-1.7,1-2.6l16.1-16.1C114.7,57.8,114.8,58.3,114.8,58.8z M114.5,54.5c0,0.5,0.1,1,0.1,1.5
		L99.2,71.4c0.2-0.7,0.4-1.4,0.5-2.1L114.5,54.5z M114.4,53.2l-14.2,14.2c0.1-0.6,0.2-1.3,0.3-1.9l13.7-13.7
		C114.2,52.3,114.3,52.8,114.4,53.2z M114,50.6L100.6,64c0.1-0.6,0.1-1.1,0.1-1.7l13-13C113.8,49.7,113.9,50.2,114,50.6z
		 M113.5,48.1l-12.7,12.7c0-0.5,0-1.1,0-1.6l12.4-12.4C113.3,47.2,113.4,47.7,113.5,48.1z M112.9,45.7l-12.1,12.1
		c0-0.5-0.1-1-0.1-1.5l11.9-11.9C112.7,44.9,112.8,45.3,112.9,45.7z M111.8,42.2c0.1,0.4,0.3,0.8,0.4,1.2l-11.7,11.7
		c-0.1-0.5-0.1-0.9-0.2-1.4L111.8,42.2z M111,40c0.2,0.4,0.3,0.8,0.4,1.2l-11.3,11.3c-0.1-0.4-0.2-0.9-0.3-1.3L111,40z M110.1,37.9
		c0.2,0.4,0.3,0.7,0.5,1.1L99.5,50c-0.1-0.4-0.2-0.8-0.3-1.3L110.1,37.9z M109.2,35.8c0.2,0.4,0.3,0.7,0.5,1.1L98.9,47.7
		c-0.1-0.4-0.3-0.8-0.4-1.2L109.2,35.8z M108.1,33.9c0.2,0.3,0.4,0.7,0.6,1L98.1,45.5c-0.1-0.4-0.3-0.8-0.5-1.1L108.1,33.9z
		 M107.6,32.9L97.2,43.4c-0.2-0.4-0.3-0.7-0.5-1.1L107,31.9C107.2,32.3,107.4,32.6,107.6,32.9z M106.5,31.1L96.2,41.4
		c-0.2-0.3-0.4-0.7-0.6-1l10.2-10.2C106.1,30.4,106.3,30.7,106.5,31.1z M104.7,28.3c0.2,0.3,0.4,0.6,0.6,0.9L95.1,39.4
		c-0.2-0.3-0.4-0.7-0.6-1L104.7,28.3z M104.1,27.5L94,37.6c-0.2-0.3-0.4-0.6-0.6-0.9l10-10C103.6,26.9,103.8,27.2,104.1,27.5z
		 M102.8,25.8l-10,10c-0.2-0.3-0.4-0.6-0.7-0.9l10-10C102.3,25.2,102.5,25.5,102.8,25.8z M100.6,23.3c0.3,0.3,0.5,0.6,0.8,0.8
		l-10,10c-0.2-0.3-0.5-0.6-0.7-0.9L100.6,23.3z M115.3,9.8L114.7,6l-3.8-0.6l7.9-3.5L115.3,9.8z"/>
	<polygon fill="#FFFFFF" points="117.9,111.8 112.6,112.6 111.8,117.9 112.8,118.1 113.4,113.5 118.1,112.8 	"/>
	<polygon fill="#FFFFFF" points="115.1,115.2 114.3,120.5 115.3,120.7 116,116.1 120.7,115.3 120.7,115.3 120.5,114.3 	"/>
</g>
</svg>
